<?xml version="1.0" encoding="UTF-8"?>
<svg width="18px" height="18px" viewBox="0 0 18 18" version="1.1" xmlns="http://www.w3.org/2000/svg" xmlns:xlink="http://www.w3.org/1999/xlink">
    <title>cube</title>
    <g id="Evolution-2020" stroke="none" stroke-width="1" fill="none" fill-rule="evenodd">
        <g id="01---Dashboard---Desktop-01" transform="translate(-623.000000, -919.000000)" fill="#FFFFFF" fill-rule="nonzero">
            <g id="contenu" transform="translate(71.000000, 145.000000)">
                <g id="actions" transform="translate(459.000000, 463.000000)">
                    <g id="créer-un-projet" transform="translate(21.000000, 291.000000)">
                        <path d="M81.0000176,20 C81.6591257,20 82.1953277,20.5362052 82.1953277,21.1953172 C82.1953277,21.73212 81.8396175,22.187325 81.3515794,22.3377943 L81.3515794,22.3377943 L81.3515794,24.2928761 L84.9991738,26.3138762 L86.7396157,24.573389 C86.8055687,24.5074707 86.8949709,24.4704159 86.9882051,24.4704159 L86.9882051,24.4704159 L87.6622194,24.4704159 C87.8126879,23.9823398 88.2678901,23.6266626 88.8046898,23.6266626 C89.4637979,23.6266626 90,24.1628678 90,24.8219798 C90,25.4810917 89.4637979,26.0172969 88.8046898,26.0172969 C88.2678901,26.0172969 87.8126879,25.6616198 87.6622194,25.1735436 L87.6622194,25.1735436 L87.1338572,25.1735436 L85.4124699,26.894941 L85.4124699,31.1049887 L87.1338572,32.826386 L87.6622194,32.826386 C87.8126879,32.3383099 88.2678901,31.9826327 88.8046898,31.9826327 C89.4637979,31.9826327 90,32.5188731 90,33.1779851 C90,33.837097 89.4637979,34.3733022 88.8046898,34.3733022 C88.2678901,34.3733022 87.8126879,34.0176251 87.6622194,33.5295489 L87.6622194,33.5295489 L86.9882051,33.5295489 C86.8949709,33.5295489 86.8055687,33.4924941 86.7396157,33.4265759 L86.7396157,33.4265759 L84.9991738,31.6860886 L81.3515794,33.7070887 L81.3515794,35.6622057 C81.8396175,35.812675 82.1953277,36.26788 82.1953277,36.8046828 C82.1953277,37.4637948 81.6591257,38 81.0000176,38 C80.3409095,38 79.8047074,37.4637948 79.8047074,36.8046828 C79.8047074,36.26788 80.1604177,35.812675 80.6484558,35.6622057 L80.6484558,35.6622057 L80.6484558,33.7070887 L79.8668635,33.2740323 C79.697024,33.1799187 79.6356413,32.9659569 79.7297544,32.7961164 C79.8238324,32.6262759 80.0377929,32.564928 80.2076676,32.6590065 L80.2076676,32.6590065 L80.6484909,32.9032379 L80.6484909,29.2071063 L77.2906889,27.3466654 L77.2906889,31.0428674 L77.7763364,31.3119543 C77.9461759,31.406068 78.0075586,31.6200298 77.9134455,31.7898703 C77.8192972,31.9597108 77.605407,32.0210587 77.4355324,31.9269802 L77.4355324,31.9269802 L77.0008262,31.6861238 L75.2603843,33.4265759 C75.1944313,33.4924941 75.1050291,33.5295489 75.0117949,33.5295489 L75.0117949,33.5295489 L74.3377806,33.5295489 C74.1873121,34.0176251 73.7321099,34.3733022 73.1953102,34.3733022 C72.5362021,34.3733022 72,33.837097 72,33.1779851 C72,32.5188731 72.5362021,31.9826679 73.1953102,31.9826679 C73.7321099,31.9826679 74.1873121,32.3383451 74.3377806,32.8264212 L74.3377806,32.8264212 L74.8661428,32.8264212 L76.5875301,31.1050238 L76.5875301,26.894941 L74.8661428,25.1735436 L74.3377806,25.1735436 C74.1873121,25.6616198 73.7321099,26.0172969 73.1953102,26.0172969 C72.5362021,26.0172969 72,25.4810917 72,24.8219798 C72,24.1628678 72.5362021,23.6266626 73.1953102,23.6266626 C73.7321099,23.6266626 74.1873121,23.9823398 74.3377806,24.4704159 L74.3377806,24.4704159 L75.0117949,24.4704159 C75.1050291,24.4704159 75.1944313,24.5074707 75.2603843,24.573389 L75.2603843,24.573389 L77.0008613,26.3138762 L80.6484558,24.2928761 L80.6484558,22.3377943 C80.1604177,22.187325 79.8047074,21.73212 79.8047074,21.1953172 C79.8047074,20.5362052 80.3409095,20 81.0000176,20 Z M80.4375,36 C80.1273214,36 79.875,36.2242857 79.875,36.5 C79.875,36.7757143 80.1273214,37 80.4375,37 C80.7476786,37 81,36.7757143 81,36.5 C81,36.2242857 80.7476786,36 80.4375,36 Z M73.6875,33 C73.3773214,33 73.125,33.2242857 73.125,33.5 C73.125,33.7757143 73.3773214,34 73.6875,34 C73.9976786,34 74.25,33.7757143 74.25,33.5 C74.25,33.2242857 73.9976786,33 73.6875,33 Z M88.3125,33 C88.0023214,33 87.75,33.2242857 87.75,33.5 C87.75,33.7757143 88.0023214,34 88.3125,34 C88.6226786,34 88.875,33.7757143 88.875,33.5 C88.875,33.2242857 88.6226786,33 88.3125,33 Z M78.1875,32 C78.3354375,32 78.4805625,32.05355 78.5851313,32.1465 C78.6898125,32.24 78.75,32.3685 78.75,32.5 C78.75,32.63195 78.6897563,32.7605 78.5851313,32.8535 C78.48,32.947 78.3354375,33 78.1875,33 C78.0389438,33 77.8944375,32.947 77.78925,32.8535 C77.684625,32.7605 77.625,32.632 77.625,32.5 C77.625,32.3685 77.684625,32.24 77.78925,32.1465 C77.893875,32.0535 78.0389438,32 78.1875,32 Z M80.8208987,25 L77.625,26.8477545 L80.8208987,28.6954739 L81.9651663,28.0339422 C82.1279979,27.9398795 82.3329017,28.0012522 82.4230755,28.171029 C82.5132493,28.3408409 82.4544359,28.5547666 82.2917053,28.6488644 L82.2917053,28.6488644 L81.1577789,29.3044558 L81.1577452,33 L84.375,31.1399076 L84.375,27.0548611 L80.8208987,25 Z M83.8125,27 C83.961,27 84.1055625,27.05345 84.2101313,27.1465 C84.3153188,27.24 84.375,27.369 84.375,27.5 C84.375,27.6315 84.3153188,27.7605 84.2101313,27.85345 C84.1055625,27.94695 83.9604375,28 83.8125,28 C83.6645063,28 83.5194375,27.94695 83.4148125,27.85345 C83.3101312,27.7605 83.25,27.632 83.25,27.5 C83.25,27.36845 83.3101875,27.24 83.4148125,27.1465 C83.5194375,27.05345 83.6645063,27 83.8125,27 Z M88.3125,24 C88.0023214,24 87.75,24.2242857 87.75,24.5 C87.75,24.7757143 88.0023214,25 88.3125,25 C88.6226786,25 88.875,24.7757143 88.875,24.5 C88.875,24.2242857 88.6226786,24 88.3125,24 Z M73.6875,24 C73.3773214,24 73.125,24.2242857 73.125,24.5 C73.125,24.7757143 73.3773214,25 73.6875,25 C73.9976786,25 74.25,24.7757143 74.25,24.5 C74.25,24.2242857 73.9976786,24 73.6875,24 Z M80.4375,21 C80.1273214,21 79.875,21.2242857 79.875,21.5 C79.875,21.7757143 80.1273214,22 80.4375,22 C80.7476786,22 81,21.7757143 81,21.5 C81,21.2242857 80.7476786,21 80.4375,21 Z" id="cube"></path>
                    </g>
                </g>
            </g>
        </g>
    </g>
</svg>