<?xml version="1.0" encoding="UTF-8"?>
<svg width="18px" height="17px" viewBox="0 0 18 17" version="1.1" xmlns="http://www.w3.org/2000/svg" xmlns:xlink="http://www.w3.org/1999/xlink">
    <title>icons/bio</title>
    <g id="Evolution-2020" stroke="none" stroke-width="1" fill="none" fill-rule="evenodd">
        <g id="01---Dashboard---Desktop-01" transform="translate(-1201.000000, -520.000000)" fill="#FFFFFF">
            <g id="contenu" transform="translate(71.000000, 145.000000)">
                <g id="book" transform="translate(859.000000, 113.000000)">
                    <g id="écrirs-sa-bio" transform="translate(200.000000, 252.000000)">
                        <g id="Shape" transform="translate(71.000000, 10.000000)">
                            <path d="M0.91375,1.80625 L16.85125,1.80625 C17.2913519,1.80625 17.648125,1.44947691 17.648125,1.009375 C17.648125,0.56927309 17.2913519,0.2125 16.85125,0.2125 L0.91375,0.2125 C0.47364809,0.2125 0.116875,0.56927309 0.116875,1.009375 C0.116875,1.44947691 0.47364809,1.80625 0.91375,1.80625 Z"></path>
                            <path d="M0.91375,5.525 L11.0075,5.525 C11.4476019,5.525 11.804375,5.16822691 11.804375,4.728125 C11.804375,4.28802309 11.4476019,3.93125 11.0075,3.93125 L0.91375,3.93125 C0.47364809,3.93125 0.116875,4.28802309 0.116875,4.728125 C0.116875,5.16822691 0.47364809,5.525 0.91375,5.525 Z"></path>
                            <path d="M0.91375,9.24375 L15.78875,9.24375 C16.2288519,9.24375 16.585625,8.88697691 16.585625,8.446875 C16.585625,8.00677309 16.2288519,7.65 15.78875,7.65 L0.91375,7.65 C0.47364809,7.65 0.116875,8.00677309 0.116875,8.446875 C0.116875,8.88697691 0.47364809,9.24375 0.91375,9.24375 Z"></path>
                            <path d="M0.91375,12.9625 L14.195,12.9625 C14.6351019,12.9625 14.991875,12.6057269 14.991875,12.165625 C14.991875,11.7255231 14.6351019,11.36875 14.195,11.36875 L0.91375,11.36875 C0.47364809,11.36875 0.116875,11.7255231 0.116875,12.165625 C0.116875,12.6057269 0.47364809,12.9625 0.91375,12.9625 Z"></path>
                            <path d="M16.85125,15.0875 L0.91375,15.0875 C0.47364809,15.0875 0.116875,15.4442731 0.116875,15.884375 C0.116875,16.3244769 0.47364809,16.68125 0.91375,16.68125 L16.85125,16.68125 C17.2913519,16.68125 17.648125,16.3244769 17.648125,15.884375 C17.648125,15.4442731 17.2913519,15.0875 16.85125,15.0875 Z"></path>
                        </g>
                    </g>
                </g>
            </g>
        </g>
    </g>
</svg>