<?xml version="1.0" encoding="UTF-8"?>
<svg width="24px" height="24px" viewBox="0 0 24 24" version="1.1" xmlns="http://www.w3.org/2000/svg" xmlns:xlink="http://www.w3.org/1999/xlink">
    <title>bouton_historique</title>
    <g id="Evolution-2020" stroke="none" stroke-width="1" fill="none" fill-rule="evenodd">
        <g id="01---Dashboard---Desktop-01" transform="translate(-464.000000, -278.000000)">
            <g id="contenu" transform="translate(71.000000, 145.000000)">
                <g id="skill-box" transform="translate(59.000000, 113.000000)">
                    <g id="bouton_historique" transform="translate(334.000000, 20.000000)">
                        <rect id="Rectangle" stroke="#E83A4B" x="0.5" y="0.5" width="23" height="23" rx="3"></rect>
                        <g id="Shape" transform="translate(4.000000, 4.000000)" fill="#E83A4B">
                            <path d="M14.9059459,2.72 L11.987027,2.72 C11.6287883,2.72 11.3383784,3.00541847 11.3383784,3.3575 C11.3383784,3.70958153 11.6287883,3.995 11.987027,3.995 L13.3967568,3.995 L8.90810811,8.64025 L7.04432432,6.2135 C6.93133211,6.06704533 6.7595227,5.97564597 6.57297297,5.96275 C6.38424145,5.94677134 6.19827619,6.01550497 6.06702703,6.14975 L1.60864865,10.55275 L1.60864865,1.02 C1.60864865,0.667918472 1.31823876,0.3825 0.96,0.3825 C0.601761243,0.3825 0.311351351,0.667918472 0.311351351,1.02 L0.311351351,1.87 L0.311351351,3.145 L0.311351351,4.845 L0.311351351,6.12 L0.311351351,7.82 L0.311351351,9.095 L0.311351351,10.795 L0.311351351,12.07 L0.311351351,13.77 L0.311351351,15.045 L0.311351351,16.1075 C0.311351351,16.4595815 0.601761243,16.745 0.96,16.745 L2.04108108,16.745 L3.33837838,16.745 L5.06810811,16.745 L6.36540541,16.745 L8.09513514,16.745 L9.39243243,16.745 L11.1221622,16.745 L12.4194595,16.745 L14.1491892,16.745 L15.4464865,16.57925 C15.649203,16.4044779 15.7197383,16.1241255 15.623259,15.8766425 C15.5267797,15.6291596 15.2836965,15.4669023 15.0140541,15.47 L1.60864865,15.47 L1.60864865,12.3165 C1.65709515,12.2926108 1.70216071,12.2626072 1.7427027,12.22725 L6.46054054,7.55225 L8.33297297,9.99175 C8.44790176,10.1403709 8.62333558,10.2320168 8.81297297,10.2425 C9.00280235,10.2493867 9.18668991,10.176787 9.31891892,10.04275 L14.5772973,4.5985 L14.5772973,6.06475 C14.5772973,6.41683153 14.8677072,6.70225 15.2259459,6.70225 C15.5841847,6.70225 15.8745946,6.41683153 15.8745946,6.06475 L15.8745946,3.3745 C15.8747841,3.02116824 15.5895916,2.73147176 15.2302703,2.72 C15.2302703,2.72 14.9616163,2.72143735 14.9059459,2.72 Z"></path>
                        </g>
                    </g>
                </g>
            </g>
        </g>
    </g>
</svg>