<?xml version="1.0" encoding="UTF-8"?>
<svg width="16px" height="17px" viewBox="0 0 16 17" version="1.1" xmlns="http://www.w3.org/2000/svg" xmlns:xlink="http://www.w3.org/1999/xlink">
    <title>icons/chapitre</title>
    <g id="Evolution-2020" stroke="none" stroke-width="1" fill="none" fill-rule="evenodd">
        <g id="01---Dashboard---Desktop-01" transform="translate(-1022.000000, -520.000000)" fill="#FFFFFF">
            <g id="contenu" transform="translate(71.000000, 145.000000)">
                <g id="book" transform="translate(859.000000, 113.000000)">
                    <g id="écrirs-un-chapitre" transform="translate(20.000000, 252.000000)">
                        <g id="Shape" transform="translate(72.000000, 10.000000)">
                            <path d="M13.488,15.64 L1.488,15.64 L1.488,1.28444444 L8.288,1.28444444 L8.288,0.151111111 L1.488,0.151111111 C0.8252583,0.151111111 0.288,0.658521728 0.288,1.28444444 L0.288,15.64 C0.288,16.2659227 0.8252583,16.7733333 1.488,16.7733333 L13.488,16.7733333 C14.1507417,16.7733333 14.688,16.2659227 14.688,15.64 L14.688,8.46222222 L13.488,8.46222222 L13.488,15.64 Z"></path>
                            <path d="M15.536,1.564 L14.688,0.763111111 C14.2194919,0.321181562 13.4605081,0.321181562 12.992,0.763111111 C12.992,0.763111111 6.324,7.05311111 6.224,7.43466667 L5.924,8.568 C5.82130518,8.95447767 5.9410511,9.36349694 6.23938011,9.64525212 C6.53770912,9.9270073 6.97078835,10.0401007 7.38,9.94311111 L8.58,9.65977778 C8.98,9.56155556 15.536,3.16955556 15.536,3.16955556 C16.0039254,2.72707571 16.0039254,2.01025763 15.536,1.56777778 L15.536,1.564 Z M9.056,7.684 L8.236,6.90955556 L8.208,6.88688889 L13.84,1.56777778 L14.688,2.36866667 L9.056,7.684 Z"></path>
                        </g>
                    </g>
                </g>
            </g>
        </g>
    </g>
</svg>