<?xml version="1.0" encoding="UTF-8"?>
<svg width="25px" height="28px" viewBox="0 0 25 28" version="1.1" xmlns="http://www.w3.org/2000/svg" xmlns:xlink="http://www.w3.org/1999/xlink">
    <!-- Generator: Sketch 52.2 (67145) - http://www.bohemiancoding.com/sketch -->
    <title>demarrer_action</title>
    <desc>Created with Sketch.</desc>
    <g id="Style-Guide" stroke="none" stroke-width="1" fill="none" fill-rule="evenodd">
        <g id="Icones" transform="translate(-148.000000, -1680.000000)" fill="#FFFFFF" fill-rule="nonzero">
            <g id="Call-to-action" transform="translate(131.000000, 1575.000000)">
                <g id="bouton-demarrer" transform="translate(0.000000, 90.000000)">
                    <g id="demarrer_action" transform="translate(17.000000, 15.000000)">
                        <path d="M9.48276,18.5172 C9.5572,18.592 9.6,18.6948 9.6,18.8 C9.6,18.90556 9.55716,19.0084 9.48276,19.0828 C9.408,19.1576 9.3052,19.2 9.2,19.2 C9.09436,19.2 8.9916,19.1576 8.9168,19.0828 C8.8424,19.0084 8.8,18.9056 8.8,18.8 C8.8,18.6948 8.8424,18.592 8.9168,18.5172 C8.9912,18.4428 9.09436,18.4 9.2,18.4 C9.3052,18.4 9.4084,18.44284 9.48276,18.5172 Z M23.1531282,18.6396509 C24.0612327,18.6396509 24.7999516,19.4738026 24.8,20.4990879 C24.8,21.5243731 24.0612327,22.3584702 23.1531282,22.3584702 C22.4135375,22.3584702 21.7863699,21.8051946 21.5790579,21.045965 L20.6504159,21.045965 C20.5219599,21.045965 20.3987836,20.9883242 20.307915,20.8857847 L17.9099728,18.1783601 L12.8843983,21.322138 L12.8843983,24.3634311 C13.5568063,24.5974945 14.046896,25.305591 14.046896,26.1406177 C14.046896,27.165903 13.3081287,28 12.4000242,28 C11.4919197,28 10.7531524,27.165903 10.7531524,26.1406177 C10.7531524,25.305591 11.2432421,24.5974945 11.9156502,24.3634311 L11.9156502,21.322138 L10.8387898,20.6484947 C10.6047887,20.5020957 10.520217,20.1692663 10.6498839,19.9050699 C10.7795024,19.6408736 11.0742924,19.5454435 11.308342,19.6917879 L11.9156986,20.0717034 L11.9156986,14.3221653 L7.28939358,11.4281462 L7.28939358,17.1777937 L7.95850789,17.5963734 C8.192509,17.7427724 8.27708071,18.0756019 8.14741377,18.3397982 C8.0176984,18.6039945 7.72300523,18.6994246 7.48895569,18.5530803 L6.89002717,18.1784148 L4.49208498,20.8857847 C4.4012164,20.9883242 4.27804008,21.045965 4.14958408,21.045965 L3.22094215,21.045965 C3.01363005,21.8051946 2.38646253,22.3584702 1.64687178,22.3584702 C0.738767307,22.3584702 -3.64153152e-13,21.5243731 -3.64153152e-13,20.4990879 C-3.64153152e-13,19.4738026 0.738767307,18.6397056 1.64687178,18.6397056 C2.38646253,18.6397056 3.01363005,19.1929812 3.22094215,19.9522108 L3.94890791,19.9522108 L6.32059703,17.2744815 L6.32059703,10.7254638 L3.94890791,8.04773456 L3.22094215,8.04773456 C3.01363005,8.80696409 2.38646253,9.36023969 1.64687178,9.36023969 C0.738767307,9.36023969 -3.64153152e-13,8.52614268 -3.64153152e-13,7.50085743 C-3.64153152e-13,6.47557217 0.738767307,5.64147516 1.64687178,5.64147516 C2.38646253,5.64147516 3.01363005,6.19475076 3.22094215,6.95398029 L4.14958408,6.95398029 C4.27804008,6.95398029 4.4012164,7.01162114 4.49208498,7.1141606 L6.89007561,9.82158524 L11.9156502,6.67780734 L11.9156502,3.63656889 C11.2432421,3.40250548 10.7531524,2.69440896 10.7531524,1.85938226 C10.7531524,0.834097008 11.4919197,0 12.4000242,0 C13.3081287,0 14.046896,0.834097008 14.046896,1.85938226 C14.046896,2.69440896 13.5568063,3.40250548 12.8843983,3.63656889 L12.8843983,6.67780734 L17.9099728,9.82158524 L20.307915,7.1141606 C20.3987836,7.01162114 20.5219599,6.95398029 20.6504159,6.95398029 L21.5790579,6.95398029 C21.7863699,6.19475076 22.4135375,5.64147516 23.1531282,5.64147516 C24.0612327,5.64147516 24.8,6.47557217 24.8,7.50085743 C24.8,8.52614268 24.0612327,9.36023969 23.1531282,9.36023969 C22.4135375,9.36023969 21.7863699,8.80696409 21.5790579,8.04773456 L20.8510921,8.04773456 L18.479403,10.7254638 L18.479403,17.2744269 L20.8510921,19.9521561 L21.5790579,19.9521561 C21.7863699,19.1929265 22.4135375,18.6396509 23.1531282,18.6396509 Z M23.2,6.4 C22.7588571,6.4 22.4,6.75885714 22.4,7.2 C22.4,7.64114286 22.7588571,8 23.2,8 C23.6411429,8 24,7.64114286 24,7.2 C24,6.75885714 23.6411429,6.4 23.2,6.4 Z M1.6,8 C2.04114286,8 2.4,7.64114286 2.4,7.2 C2.4,6.75885714 2.04114286,6.4 1.6,6.4 C1.15885714,6.4 0.8,6.75885714 0.8,7.2 C0.8,7.64114286 1.15885714,8 1.6,8 Z M1.6,21.6 C2.04114286,21.6 2.4,21.2411429 2.4,20.8 C2.4,20.3588571 2.04114286,20 1.6,20 C1.15885714,20 0.8,20.3588571 0.8,20.8 C0.8,21.2411429 1.15885714,21.6 1.6,21.6 Z M11.2,1.6 C11.2,2.04114286 11.5588571,2.4 12,2.4 C12.4411429,2.4 12.8,2.04114286 12.8,1.6 C12.8,1.15885714 12.4411429,0.8 12,0.8 C11.5588571,0.8 11.2,1.15885714 11.2,1.6 Z M12.8,26.4 C12.8,25.9588571 12.4411429,25.6 12,25.6 C11.5588571,25.6 11.2,25.9588571 11.2,26.4 C11.2,26.8411429 11.5588571,27.2 12,27.2 C12.4411429,27.2 12.8,26.8411429 12.8,26.4 Z M15.88276,11.3172 C15.95756,11.392 16,11.4952 16,11.6 C16,11.7052 15.95756,11.8084 15.88276,11.88276 C15.8084,11.95756 15.7052,12 15.6,12 C15.49476,12 15.3916,11.95756 15.3172,11.88276 C15.24276,11.8084 15.2,11.7056 15.2,11.6 C15.2,11.49476 15.2428,11.392 15.3172,11.3172 C15.3916,11.24276 15.49476,11.2 15.6,11.2 C15.7056,11.2 15.8084,11.24276 15.88276,11.3172 Z M17.6,17.0238522 L17.6,10.4877777 L12.5452782,7.2 L8,10.1564073 L12.5452782,13.1127583 L14.172681,12.0543075 C14.4042637,11.9038072 14.6956824,12.0020036 14.8239296,12.2736464 C14.9521768,12.5453454 14.868531,12.8876266 14.637092,13.0381831 L13.0243967,14.0871292 L13.0243488,14.0871292 L13.0243488,20 L17.6,17.0238522 Z M23.2,21.6 C23.6411429,21.6 24,21.2411429 24,20.8 C24,20.3588571 23.6411429,20 23.2,20 C22.7588571,20 22.4,20.3588571 22.4,20.8 C22.4,21.2411429 22.7588571,21.6 23.2,21.6 Z" id="ui/icons/demarrerAction"></path>
                    </g>
                </g>
            </g>
        </g>
    </g>
</svg>