<?xml version="1.0" encoding="UTF-8"?>
<svg width="22px" height="24px" viewBox="0 0 22 24" version="1.1" xmlns="http://www.w3.org/2000/svg" xmlns:xlink="http://www.w3.org/1999/xlink">
    <title>icons/doc</title>
    <g id="Evolution-2020" stroke="none" stroke-width="1" fill="none" fill-rule="evenodd">
        <g id="04a---Action----Résultat---Desktop02" transform="translate(-330.000000, -1826.000000)" fill="#00A293">
            <g id="contenu" transform="translate(330.000000, 961.000000)">
                <g id="doc" transform="translate(0.000000, 683.000000)">
                    <g id="preuves" transform="translate(0.000000, 16.000000)">
                        <g id="doc" transform="translate(0.000000, 146.000000)">
                            <path d="M16.0822021,36.8776542 C16.6532903,36.8776542 17.1167821,37.2841254 17.1167821,37.7876643 C17.1167821,38.2851365 16.6532903,38.6976744 16.0822021,38.6976744 L5.81778851,38.6976744 C5.2460106,38.6976744 4.78320845,38.2851365 4.78320845,37.7876643 C4.78320845,37.2841254 5.2460106,36.8776542 5.81778851,36.8776542 L16.0822021,36.8776542 Z M16.1318619,33.0616785 C16.7036398,33.0616785 17.166442,33.4681496 17.166442,33.9716886 C17.166442,34.4752275 16.7036398,34.8816987 16.1318619,34.8816987 L5.86744835,34.8816987 C5.29636016,34.8816987 4.83286829,34.4752275 4.83286829,33.9716886 C4.83286829,33.4681496 5.29636016,33.0616785 5.86744835,33.0616785 L16.1318619,33.0616785 Z M16.0822021,29.2517695 C16.6532903,29.2517695 17.1167821,29.6582406 17.1167821,30.1617796 C17.1167821,30.6592518 16.6532903,31.0717897 16.0822021,31.0717897 L5.81778851,31.0717897 C5.2460106,31.0717897 4.78320845,30.6592518 4.78320845,30.1617796 C4.78320845,29.6582406 5.2460106,29.2517695 5.81778851,29.2517695 L16.0822021,29.2517695 Z M11.9963006,25.4357937 C12.5680785,25.4357937 13.0308806,25.8422649 13.0308806,26.3458038 C13.0308806,26.8493428 12.5680785,27.255814 11.9963006,27.255814 L5.81778851,27.255814 C5.2460106,27.255814 4.78320845,26.8493428 4.78320845,26.3458038 C4.78320845,25.8422649 5.2460106,25.4357937 5.81778851,25.4357937 L11.9963006,25.4357937 Z M2.41402013,21.8200202 C2.227106,21.8200202 2.06916011,21.9595551 2.06916011,22.1233569 L2.06916011,41.8766431 C2.06916011,42.0404449 2.227106,42.1799798 2.41402013,42.1799798 L19.5859799,42.1799798 C19.772894,42.1799798 19.9308399,42.0404449 19.9308399,41.8766431 L19.9308399,22.1233569 C19.9308399,21.9595551 19.772894,21.8200202 19.5859799,21.8200202 L2.41402013,21.8200202 Z M19.5859799,44 L2.41402013,44 C1.08286046,44 0,43.0475228 0,41.8766431 L0,22.1233569 C0,20.9524772 1.08286046,20 2.41402013,20 L19.5859799,20 C20.9171395,20 22,20.9524772 22,22.1233569 L22,41.8766431 C22,43.0475228 20.9171395,44 19.5859799,44 L19.5859799,44 Z" id="icons/doc"></path>
                        </g>
                    </g>
                </g>
            </g>
        </g>
    </g>
</svg>