<?xml version="1.0" encoding="UTF-8"?>
<svg width="23px" height="24px" viewBox="0 0 23 24" version="1.1" xmlns="http://www.w3.org/2000/svg" xmlns:xlink="http://www.w3.org/1999/xlink">
    <title>en dessous</title>
    <g id="Evolution-2020" stroke="none" stroke-width="1" fill="none" fill-rule="evenodd">
        <g id="04a---Proact---MesActions---Desktop02" transform="translate(-741.000000, -597.000000)">
            <g id="contenu" transform="translate(0.000000, 85.000000)">
                <g id="dashboard" transform="translate(130.000000, 211.000000)">
                    <g id="Mes-coéqupiers" transform="translate(0.000000, 225.000000)">
                        <g id="en-dessous" transform="translate(611.000000, 76.000000)">
                            <rect id="Rectangle-5" fill="#FC6E50" x="0" y="0" width="23" height="24" rx="5"></rect>
                            <g id="icons/etoiles" transform="translate(7.000000, 4.000000)" fill="#FFFFFF">
                                <path d="M4.39481482,1.0658141e-13 C4.15032965,0.000214664689 3.92819621,0.145698066 3.82551249,0.372857143 L2.7371404,2.78571429 L0.627372956,2.78571429 C0.373579943,2.78594283 0.144876043,2.94256719 0.0477838593,3.18263699 C-0.0493083241,3.42270679 0.00430479537,3.6990113 0.183652025,3.88285714 L1.82458226,5.56285714 L1.26574505,8.22 C1.21194189,8.47685744 1.31620021,8.74138783 1.52905453,8.88808443 C1.74190885,9.03478103 2.02052839,9.03412539 2.23272179,8.88642857 L4.39272179,7.38642857 L6.54853575,8.88642857 C6.75402448,9.02983208 7.02281586,9.03556053 7.23395547,8.90103616 C7.44509508,8.7665118 7.55879249,8.51708646 7.52388458,8.265 L7.15132644,5.58214286 L8.81318691,3.88071429 C8.99078894,3.69695227 9.0435974,3.42214863 8.94722663,3.18320089 C8.85085587,2.94425316 8.62405655,2.78765291 8.371559,2.78571429 L6.05248923,2.78571429 L4.96411714,0.372857143 C4.86143342,0.145698066 4.63929999,0.000214664689 4.39481482,1.0658141e-13 Z"></path>
                            </g>
                            <g id="Group" transform="translate(1.000000, 11.000000)" fill="#FFFFFF" opacity="0.51">
                                <g id="icons/etoiles">
                                    <path d="M4.39481482,1.0658141e-13 C4.15032965,0.000214664689 3.92819621,0.145698066 3.82551249,0.372857143 L2.7371404,2.78571429 L0.627372956,2.78571429 C0.373579943,2.78594283 0.144876043,2.94256719 0.0477838593,3.18263699 C-0.0493083241,3.42270679 0.00430479537,3.6990113 0.183652025,3.88285714 L1.82458226,5.56285714 L1.26574505,8.22 C1.21194189,8.47685744 1.31620021,8.74138783 1.52905453,8.88808443 C1.74190885,9.03478103 2.02052839,9.03412539 2.23272179,8.88642857 L4.39272179,7.38642857 L6.54853575,8.88642857 C6.75402448,9.02983208 7.02281586,9.03556053 7.23395547,8.90103616 C7.44509508,8.7665118 7.55879249,8.51708646 7.52388458,8.265 L7.15132644,5.58214286 L8.81318691,3.88071429 C8.99078894,3.69695227 9.0435974,3.42214863 8.94722663,3.18320089 C8.85085587,2.94425316 8.62405655,2.78765291 8.371559,2.78571429 L6.05248923,2.78571429 L4.96411714,0.372857143 C4.86143342,0.145698066 4.63929999,0.000214664689 4.39481482,1.0658141e-13 Z"></path>
                                </g>
                            </g>
                            <g id="Group" transform="translate(13.000000, 11.000000)" fill="#FFFFFF" opacity="0.509765625">
                                <g id="icons/etoiles">
                                    <path d="M4.39481482,1.0658141e-13 C4.15032965,0.000214664689 3.92819621,0.145698066 3.82551249,0.372857143 L2.7371404,2.78571429 L0.627372956,2.78571429 C0.373579943,2.78594283 0.144876043,2.94256719 0.0477838593,3.18263699 C-0.0493083241,3.42270679 0.00430479537,3.6990113 0.183652025,3.88285714 L1.82458226,5.56285714 L1.26574505,8.22 C1.21194189,8.47685744 1.31620021,8.74138783 1.52905453,8.88808443 C1.74190885,9.03478103 2.02052839,9.03412539 2.23272179,8.88642857 L4.39272179,7.38642857 L6.54853575,8.88642857 C6.75402448,9.02983208 7.02281586,9.03556053 7.23395547,8.90103616 C7.44509508,8.7665118 7.55879249,8.51708646 7.52388458,8.265 L7.15132644,5.58214286 L8.81318691,3.88071429 C8.99078894,3.69695227 9.0435974,3.42214863 8.94722663,3.18320089 C8.85085587,2.94425316 8.62405655,2.78765291 8.371559,2.78571429 L6.05248923,2.78571429 L4.96411714,0.372857143 C4.86143342,0.145698066 4.63929999,0.000214664689 4.39481482,1.0658141e-13 Z"></path>
                                </g>
                            </g>
                        </g>
                    </g>
                </g>
            </g>
        </g>
    </g>
</svg>