<?xml version="1.0" encoding="UTF-8"?>
<svg width="18px" height="18px" viewBox="0 0 18 18" version="1.1" xmlns="http://www.w3.org/2000/svg" xmlns:xlink="http://www.w3.org/1999/xlink">
    <title>icons/evaluer</title>
    <g id="Evolution-2020" stroke="none" stroke-width="1" fill="none" fill-rule="evenodd">
        <g id="01---Dashboard---Desktop-01" transform="translate(-1002.000000, -919.000000)" fill="#FFFFFF">
            <g id="contenu" transform="translate(71.000000, 145.000000)">
                <g id="evaluation" transform="translate(858.000000, 463.000000)">
                    <g id="créer-un-projet" transform="translate(21.000000, 291.000000)">
                        <g id="icons/evaluer" transform="translate(52.000000, 20.000000)">
                            <path d="M17.2460071,5.39993531 C17.6251525,4.80164914 17.667789,4.04979422 17.3587125,3.41248008 C17.0496359,2.77516594 16.4328428,2.34311286 15.7282798,2.27038986 L15.5237343,2.27038986 L15.5237343,2.27038986 C15.3623265,2.27188723 15.2016633,2.29248507 15.045098,2.33175349 C11.889251,-0.528793982 7.1602728,-0.785385239 3.71344181,1.71690527 C0.266610821,4.21919577 -0.95413109,8.79509606 0.788279785,12.6817535 C0.356553465,13.2740631 0.274747141,14.0520982 0.573837446,14.7212494 C0.872927751,15.3904006 1.50719229,15.8483737 2.2364616,15.9217535 L2.44100706,15.9217535 C2.67818739,15.9214745 2.9135121,15.8799466 3.1364616,15.7990262 C6.31785147,18.5096232 10.9466665,18.6733343 14.3116034,16.1942665 C17.6765404,13.7151987 18.8919891,9.24581238 17.2460071,5.40402622 L17.2460071,5.39993531 Z M16.3378252,4.38538986 C16.2956545,4.80503637 15.9413982,5.12386706 15.5196434,5.12175349 L15.4378252,5.12175349 C14.985956,5.09915991 14.6379593,4.71453185 14.6605527,4.2626626 C14.6831462,3.81079334 15.0677742,3.46279652 15.5196434,3.48538986 L15.6014616,3.48538986 C15.8188969,3.50603586 16.0190514,3.61276189 16.1573589,3.78180444 C16.2956665,3.95084699 16.3606446,4.16817191 16.3378252,4.38538986 L16.3378252,4.38538986 Z M8.97418888,1.19448077 C10.7908337,1.19406363 12.5494281,1.83434263 13.9405525,3.00266259 C13.3201311,3.75743912 13.3201311,4.84561333 13.9405525,5.60038986 L13.9405525,5.60038986 L11.8255525,9.40493531 C11.759479,9.38787491 11.6925727,9.37422054 11.625098,9.36402622 L11.4205525,9.36402622 L11.4205525,9.36402622 C10.9891927,9.37100411 10.5710836,9.51419215 10.2260071,9.77311713 L8.25827978,7.80538986 C8.61337023,7.20534049 8.63834525,6.46574261 8.32454293,5.84310582 C8.01074062,5.22046903 7.40138898,4.80056503 6.70782524,4.72902622 L6.50327978,4.72902622 L6.50327978,4.72902622 C5.71232685,4.72849855 4.99195674,5.1840349 4.65336052,5.89884915 C4.31476429,6.61366341 4.41863352,7.45962892 4.92009797,8.07129895 L4.92009797,8.07129895 L2.80509797,11.8758444 C2.7390245,11.858784 2.67211813,11.8451296 2.60464342,11.8349353 L2.40009797,11.8349353 L2.40009797,11.8349353 C2.18719737,11.8375974 1.97601778,11.8734842 1.77418888,11.9412989 C1.3919193,10.9969326 1.20140127,9.98593552 1.21373433,8.96720804 C1.21373433,4.6744493 4.69370287,1.19448077 8.9864616,1.19448077 L8.97418888,1.19448077 Z M12.2469161,11.5035717 C12.2047454,11.9232182 11.8504891,12.2420489 11.4287343,12.2399353 L11.3469161,12.2399353 C10.8950469,12.2173417 10.5470502,11.8327137 10.5696436,11.3808444 C10.5922371,10.9289752 10.9768651,10.5809783 11.4287343,10.6035717 L11.5105525,10.6035717 C11.7294618,10.6221626 11.9316969,10.7280103 12.0717373,10.8972899 C12.2117777,11.0665695 12.2778557,11.2850563 12.255098,11.5035717 L12.2469161,11.5035717 Z M7.33782524,6.84402622 C7.29565453,7.26367273 6.9413982,7.58250342 6.51964342,7.58038986 L6.43782524,7.58038986 C5.9859559,7.55779639 5.63795905,7.17316829 5.66055251,6.72129895 C5.68314598,6.26942961 6.06777408,5.92143275 6.51964342,5.94402622 L6.6014616,5.94402622 C6.81811164,5.96470916 7.01759393,6.07085603 7.1557846,6.23898802 C7.29397527,6.40712 7.3594856,6.62338081 7.33782524,6.83993531 L7.33782524,6.84402622 Z M2.42873433,14.6985717 L2.34691615,14.6985717 C1.89504681,14.6759782 1.54704995,14.2913501 1.56964342,13.8394808 C1.59223689,13.3876114 1.97686499,13.0396146 2.42873433,13.062208 L2.51055251,13.062208 C2.96242185,13.0848015 3.31041871,13.4694296 3.28782524,13.9212989 C3.26523177,14.3731683 2.88060367,14.7211651 2.42873433,14.6985717 L2.42873433,14.6985717 Z M8.97418888,16.7440262 C7.20517297,16.7450774 5.48946508,16.138514 4.11418888,15.0258444 C4.66031408,14.2364295 4.572973,13.1712109 3.90555251,12.4812989 L5.98782524,8.73402622 C6.09227974,8.76429229 6.19898162,8.78617985 6.30691615,8.79948077 L6.5114616,8.79948077 C6.79397626,8.79528491 7.07255789,8.73260404 7.32964342,8.61538986 L9.47327978,10.7590262 C9.26637196,11.3560868 9.34703364,12.0152593 9.691803,12.5448123 C10.0365724,13.0743652 10.6067395,13.4148415 11.2364616,13.467208 L11.4410071,13.467208 C12.2535792,13.4611494 12.9855063,12.9746704 13.3057101,12.2278238 C13.6259139,11.4809773 13.4736626,10.6154147 12.9178252,10.0226626 L15.000098,6.27538986 C15.1045525,6.30565592 15.2112543,6.32754349 15.3191889,6.3408444 L15.5237343,6.3408444 C15.7696524,6.3408444 16.0135551,6.29649846 16.2437343,6.20993531 C16.5814589,7.0871504 16.7548025,8.01904531 16.755098,8.95902622 C16.757269,11.0211903 15.939879,12.9996962 14.4828594,14.4590176 C13.0258397,15.9183391 11.0486265,16.7388511 8.9864616,16.7399353 L8.97418888,16.7440262 Z"></path>
                        </g>
                    </g>
                </g>
            </g>
        </g>
    </g>
</svg>