<?xml version="1.0" encoding="utf-8"?>
<!-- Generator: Adobe Illustrator 23.0.1, SVG Export Plug-In . SVG Version: 6.00 Build 0)  -->
<svg version="1.1" id="Calque_1" xmlns="http://www.w3.org/2000/svg" xmlns:xlink="http://www.w3.org/1999/xlink" x="0px" y="0px"
	 viewBox="0 0 91 74" style="enable-background:new 0 0 91 74;" xml:space="preserve">
<style type="text/css">
	.st0{fill:none;stroke:#000000;stroke-miterlimit:10;}
</style>
<title>iconBug</title>
<desc>Created with Sketch.</desc>
<g id="UI">
	<g id="bug" transform="translate(-25.000000, -32.000000)">
		<g id="iconBug" transform="translate(27.000000, 34.000000)">
			<path id="Stroke-1" class="st0" d="M61,1.4v61.1c0,1.1-1.2,1.8-2.2,1.2L31,45.4V18.6L58.8,0.2C59.8-0.4,61,0.3,61,1.4z"/>
			<path id="Stroke-3" class="st0" d="M23,18H10.8C8.7,18,7,19.7,7,21.8v19.4c0,2.1,1.7,3.8,3.8,3.8H31"/>
			<path id="Stroke-5" class="st0" d="M7,22H4.2C1.9,22,0,24.3,0,27.1v8.8C0,38.7,1.9,41,4.2,41H7"/>
			<path id="Stroke-7" class="st0" d="M25.2,51.4c0,0.4,0,0.7,0,1.1c0.1,5.1,0.8,10.1,1.3,13.4c0,0.2,0.1,0.5,0.1,0.7
				c0,0.1,0,0.3,0.1,0.4c0,0.2,0.1,0.5,0.1,0.7c0,0.2,0.1,0.4,0.1,0.6c0.2,0.9-0.5,1.7-1.4,1.7h-5.9c-1,0-1.9-0.7-2.1-1.7l-4.9-20.8
				L12,45"/>
			<path id="Stroke-9" class="st0" d="M61,22c5.5,0,10,4.3,10,9.5S66.5,41,61,41"/>
			<path id="Stroke-11" class="st0" d="M79,31.5h8"/>
			<path id="Stroke-13" class="st0" d="M74,44l4,4"/>
			<path id="Stroke-15" class="st0" d="M74,19l4-4"/>
		</g>
	</g>
</g>
</svg>
