<?xml version="1.0" encoding="UTF-8"?>
<svg width="24px" height="24px" viewBox="0 0 24 24" version="1.1" xmlns="http://www.w3.org/2000/svg" xmlns:xlink="http://www.w3.org/1999/xlink">
    <title>ui/btn/plus</title>
    <g id="Evolution-2020" stroke="none" stroke-width="1" fill="none" fill-rule="evenodd">
        <g id="04a---Action----Evaluation---Desktop" transform="translate(-330.000000, -1833.000000)">
            <g id="contenu" transform="translate(0.000000, 85.000000)">
                <g id="formulaire" transform="translate(330.000000, 1051.000000)">
                    <g id="doc" transform="translate(0.000000, 681.000000)">
                        <g id="btn/plus" transform="translate(0.000000, 16.000000)">
                            <path d="M18.9980273,0.5 C20.241577,0.5 21.3674046,1.00341796 22.1821762,1.8181895 C22.9964743,2.63248764 23.5,3.75773456 23.5,5.00197269 L23.5,5.00197269 L23.5,18.9980273 C23.5,20.241577 22.996582,21.3674046 22.1818105,22.1821762 C21.3675124,22.9964743 20.2422654,23.5 18.9980273,23.5 L18.9980273,23.5 L5.00197269,23.5 C3.75842303,23.5 2.63259535,22.996582 1.81782381,22.1818105 C1.00352568,21.3675124 0.5,20.2422654 0.5,18.9980273 L0.5,18.9980273 L0.5,5.00197269 C0.5,3.75842303 1.00341796,2.63259535 1.8181895,1.81782381 C2.63248764,1.00352568 3.75773456,0.5 5.00197269,0.5 L5.00197269,0.5 Z" id="Rectangle" stroke="#E83A4B" fill="#FFFFFF"></path>
                            <path d="M15.43968,11.43984 L12.87984,11.43984 L12.87984,8.88 C12.87984,8.48208 12.55728,8.16 12.15984,8.16 C11.76192,8.16 11.43984,8.48208 11.43984,8.88 L11.43984,11.43984 L8.88,11.43984 C8.48208,11.43984 8.16,11.76192 8.16,12.15984 C8.16,12.55776 8.48208,12.87984 8.88,12.87984 L11.43984,12.87984 L11.43984,15.43968 C11.43984,15.8376 11.76192,16.15968 12.15984,16.15968 C12.55728,16.15968 12.87984,15.8376 12.87984,15.43968 L12.87984,12.87984 L15.43968,12.87984 C15.83712,12.87984 16.15968,12.55776 16.15968,12.15984 C16.15968,11.76192 15.83712,11.43984 15.43968,11.43984" id="Path" fill="#E83A4B"></path>
                        </g>
                    </g>
                </g>
            </g>
        </g>
    </g>
</svg>