<?xml version="1.0" encoding="UTF-8"?>
<svg width="16px" height="18px" viewBox="0 0 16 18" version="1.1" xmlns="http://www.w3.org/2000/svg" xmlns:xlink="http://www.w3.org/1999/xlink">
    <title>icons/projet</title>
    <g id="Evolution-2020" stroke="none" stroke-width="1" fill="none" fill-rule="evenodd">
        <g id="01---Dashboard---Desktop-01" transform="translate(-242.000000, -919.000000)">
            <g id="contenu" transform="translate(71.000000, 145.000000)">
                <g id="projets" transform="translate(58.000000, 463.000000)">
                    <g id="créer-un-projet" transform="translate(21.000000, 291.000000)">
                        <g id="icons/projet" transform="translate(92.000000, 20.000000)">
                            <path d="M15.1468356,11.460807 C15.0249073,11.3900702 14.8957143,11.3383509 14.7626793,11.3053684 L14.7626793,7.46855263 C14.7626793,7.27483333 14.6063135,7.11771053 14.4134496,7.11771053 C14.2205856,7.11771053 14.0642198,7.27483333 14.0642198,7.46855263 L14.0642198,11.3061754 C14.0540911,11.3086667 14.0439275,11.3108421 14.0338337,11.3135789 C13.770558,11.3844561 13.5374937,11.5241404 13.35399,11.7173333 L11.7925672,10.8116491 C12.0546205,10.2567719 12.2015562,9.63680702 12.2015562,8.98287719 C12.2015562,8.32873684 12.0545157,7.70849123 11.7922179,7.15347368 L13.3548632,6.24712281 C13.5505212,6.45224561 13.7979753,6.59221053 14.0641848,6.65789474 L14.0641848,7.79 C14.0641848,7.98378947 14.2205507,8.14084211 14.4134146,8.14084211 C14.6063135,8.14084211 14.7626444,7.98375439 14.7626444,7.79 L14.7626444,6.65870175 C14.8943172,6.62635088 15.0236499,6.57554386 15.1468007,6.50414035 C15.4861113,6.30733333 15.7288503,5.98957895 15.8302069,5.60940351 C15.9316334,5.22922807 15.8795929,4.83210526 15.6836554,4.49122807 C15.2792768,3.78757895 14.380444,3.54557895 13.6799937,3.95185965 C13.5568429,4.02329825 13.4482565,4.11035088 13.3545139,4.20870175 L9.34851757,1.88515789 C9.38644772,1.75442105 9.40719404,1.61642105 9.40719404,1.47354386 C9.40719404,0.661017544 8.74917933,9.99200722e-16 7.94042198,9.99200722e-16 C7.13166463,9.99200722e-16 6.47364992,0.661017544 6.47364992,1.47354386 C6.47364992,1.61642105 6.49439624,1.75442105 6.53232639,1.88515789 L2.52685397,4.20842105 C2.43192382,4.10915789 2.32270874,4.02259649 2.20081536,3.95189474 C1.50036499,3.54557895 0.601532274,3.78757895 0.197153598,4.49126316 C0.00125102408,4.83210526 -0.0507894171,5.22922807 0.050602127,5.6094386 C0.151993671,5.98961404 0.394697715,6.30740351 0.734008377,6.50417544 C0.857194039,6.57561404 0.986526759,6.62638596 1.11816463,6.65877193 L1.11816463,10.5323947 C1.11816463,10.7261842 1.27453044,10.8832368 1.46739441,10.8832368 C1.66025838,10.8832368 1.81662419,10.7261491 1.81662419,10.5323947 L1.81662419,6.65789474 C2.08283374,6.59217544 2.33025286,6.45221053 2.52591095,6.24712281 L4.08932455,7.15392982 C3.82716647,7.70887719 3.68019588,8.32894737 3.68019588,8.98294737 C3.68019588,9.63666667 3.82706169,10.2565263 4.08901022,10.8112632 L2.52685397,11.7173684 C2.34335029,11.5242105 2.11028595,11.3845263 1.84704514,11.3136491 C1.83695139,11.3109123 1.82678779,11.3087719 1.81665911,11.3062456 L1.81665911,10.3512281 C1.81665911,10.1574737 1.6602933,10.000386 1.46742933,10.000386 C1.27456536,10.000386 1.11819955,10.1575088 1.11819955,10.3512281 L1.11819955,11.3054035 C0.985164627,11.3383509 0.855971612,11.3901053 0.734043303,11.4608421 C0.394732642,11.657614 0.151993671,11.9754035 0.0506370535,12.3555789 C-0.0507894171,12.7357895 0.00125102408,13.1328772 0.197188524,13.4737544 C0.468567201,13.9459649 0.962567201,14.2102105 1.46990911,14.2102105 C1.71855066,14.2102105 1.97047529,14.1466667 2.20085029,14.0130526 C2.3227786,13.9423509 2.43195874,13.8557895 2.52688889,13.7565614 L6.53232639,16.0797895 C6.49439624,16.2105263 6.47364992,16.3485263 6.47364992,16.4914035 C6.47364992,17.3039298 7.1316297,17.9649474 7.94042198,17.9649474 C8.74921426,17.9649474 9.40719404,17.3039298 9.40719404,16.4914035 C9.40719404,16.3485263 9.38644772,16.2105263 9.34851757,16.0797895 L13.3538852,13.7564561 C13.4488154,13.8557544 13.5580654,13.9423509 13.6800286,14.0130526 C13.9104385,14.1467368 14.1622933,14.2102105 14.4109698,14.2102105 C14.9182418,14.2101754 15.4123466,13.9459298 15.6836904,13.4737544 C15.8796279,13.1328421 15.4861113,11.6575789 15.1468356,11.460807 Z M13.671297,5.02821053 C13.7244201,4.82908772 13.8515525,4.66266667 14.0292584,4.55954386 C14.396161,4.34673684 14.8669698,4.47347368 15.0787988,4.84207018 C15.1814128,5.02063158 15.2086904,5.22863158 15.1555672,5.42778947 C15.102444,5.62691228 14.9753117,5.79336842 14.7976058,5.89645614 C14.4307382,6.10926316 13.9598944,5.9825614 13.7480654,5.61392982 C13.6454514,5.43536842 13.6182087,5.22733333 13.671297,5.02821053 Z M2.13281352,5.61392982 C2.03016463,5.79249123 1.86447345,5.92021053 1.66626573,5.97357895 C1.46802308,6.02694737 1.26097897,5.99954386 1.08323816,5.89645614 C0.905497348,5.79336842 0.778399921,5.62691228 0.725276759,5.42778947 C0.672153598,5.22866667 0.699431171,5.02063158 0.802045142,4.84207018 C0.944195877,4.59473684 1.2029661,4.4562807 1.46872161,4.4562807 C1.59896242,4.4562807 1.7308797,4.48954386 1.85158558,4.55954386 C2.02932639,4.66263158 2.15642382,4.82908772 2.20954698,5.02821053 C2.26270507,5.22736842 2.23546242,5.43540351 2.13281352,5.61392982 Z M2.20947713,12.9366667 C2.15642382,13.1358596 2.02929147,13.3022456 1.85158558,13.4053333 C1.48475286,13.6180702 1.01387419,13.4914035 0.802045142,13.1228421 C0.699431171,12.9442807 0.672153598,12.7362456 0.725276759,12.5371228 C0.778399921,12.3379298 0.905532274,12.1715439 1.08323816,12.0684561 C1.20163889,11.9997895 1.33299735,11.9647018 1.46613705,11.9647018 C1.53288154,11.9647018 1.60004514,11.9735088 1.6662308,11.9913333 C1.86447345,12.0447018 2.0301297,12.1724561 2.13274367,12.3509825 C2.23532272,12.5295439 2.26260029,12.7375789 2.20947713,12.9366667 Z M8.99855433,2.49242105 L13.0060525,4.81684211 C12.9295286,5.08136842 12.9262106,5.36684211 13.0052143,5.63968421 L11.4418705,6.54645614 C10.7341904,5.52329825 9.59419036,4.82368421 8.28965176,4.71698246 L8.28965176,2.9045614 C8.56438338,2.83687719 8.80876389,2.69122807 8.99855433,2.49242105 Z M7.94087602,10.8936491 C8.37130985,10.8936491 8.76280066,10.7239298 9.05335397,10.448 L9.51361499,10.5342456 C9.87402124,10.6017895 10.1356205,10.9181404 10.1356205,11.2864561 L10.1356205,11.7996842 C9.53030985,12.2767719 8.76807455,12.5615439 7.9408411,12.5615439 C7.11360764,12.5615439 6.35137235,12.2767719 5.74602676,11.7997193 L5.74602676,11.2864912 C5.74602676,10.9181754 6.00762602,10.6017895 6.36803227,10.5342807 L6.82832823,10.4480351 C7.11898632,10.7239649 7.51047713,10.8936491 7.94087602,10.8936491 Z M7.01808374,9.26491228 L7.01808374,8.75375439 C7.01808374,8.2425614 7.43203227,7.82670175 7.94087602,7.82670175 C8.44971977,7.82670175 8.8636683,8.2425614 8.8636683,8.75375439 L8.8636683,9.26491228 C8.8636683,9.77607018 8.44971977,10.1919649 7.94087602,10.1919649 C7.43203227,10.1919649 7.01808374,9.77607018 7.01808374,9.26491228 Z M9.64169036,9.84449123 L9.46775654,9.81189474 C9.5286683,9.64080702 9.56209294,9.45673684 9.56209294,9.26487719 L9.56209294,8.7537193 C9.56209294,7.85561404 8.83481904,7.12498246 7.9408411,7.12498246 C7.04686316,7.12498246 6.31958926,7.85561404 6.31958926,8.7537193 L6.31958926,9.26487719 C6.31958926,9.45673684 6.35301389,9.64080702 6.41392566,9.81189474 L6.23999183,9.84449123 C5.61522713,9.96154386 5.14539624,10.4686667 5.0611536,11.086807 C4.63218669,10.4958596 4.37862051,9.76863158 4.37862051,8.98287719 C4.37862051,7.00961404 5.97661132,5.40424561 7.94080617,5.40424561 C9.90500102,5.40424561 11.5029918,7.00961404 11.5029918,8.98287719 C11.5029918,9.63185965 11.3300709,10.2410526 11.0282014,10.7664211 C11.0271536,10.7681754 11.0259312,10.7697895 11.0248834,10.7715439 C11.0242198,10.7727018 11.0237308,10.7739298 11.0230672,10.7750877 C10.960933,10.8827368 10.8931757,10.9867018 10.8205286,11.086807 C10.7363209,10.4686667 10.26649,9.96154386 9.64169036,9.84449123 Z M7.94042198,0.701684211 C8.36408007,0.701684211 8.70873448,1.04792982 8.70873448,1.47354386 C8.70873448,1.89915789 8.36404514,2.2454386 7.94042198,2.2454386 C7.51679882,2.2454386 7.17210948,1.89919298 7.17210948,1.47357895 C7.17210948,1.04796491 7.51676389,0.701684211 7.94042198,0.701684211 Z M2.87608374,5.63996491 C2.95082639,5.38375439 2.95473816,5.11112281 2.88422161,4.84663158 C2.88149735,4.83649123 2.87831904,4.8265614 2.87538522,4.81649123 L6.8822547,2.49242105 C7.07204514,2.69122807 7.31642566,2.83687719 7.59115727,2.9045614 L7.59115727,4.71708772 C6.28686316,4.82407018 5.14710764,5.5237193 4.43963705,6.54684211 L2.87608374,5.63996491 Z M6.8822547,15.4724912 L2.87538522,13.1484561 C2.87828411,13.138386 2.88149735,13.1284561 2.88422161,13.1183158 C2.95477308,12.8538246 2.95086132,12.581193 2.87608374,12.3249825 L4.43918301,11.4183509 C5.1466536,12.4417895 6.28658374,13.1417544 7.59115727,13.2487018 L7.59115727,15.0603509 C7.31642566,15.1280351 7.07204514,15.2736491 6.8822547,15.4724912 Z M7.94042198,17.2632281 C7.51676389,17.2632281 7.17210948,16.9169825 7.17210948,16.4913684 C7.17210948,16.0657544 7.51676389,15.7195088 7.94042198,15.7195088 C8.36408007,15.7195088 8.70873448,16.0657544 8.70873448,16.4913684 C8.70873448,16.9169825 8.36404514,17.2632281 7.94042198,17.2632281 Z M8.99855433,15.4724912 C8.80876389,15.2736491 8.56438338,15.1280351 8.28965176,15.0603509 L8.28965176,13.248807 C9.59443485,13.1421053 10.7346444,12.4422456 11.4422896,11.4187018 L13.0047253,12.3249474 C12.9299826,12.5811579 12.9260709,12.8537895 12.9966223,13.1182807 C12.9993117,13.128386 13.0025249,13.1382807 13.0054238,13.1482807 L8.99855433,15.4724912 Z M15.0787988,13.1228772 C14.8670047,13.4914386 14.3962308,13.6181754 14.0292584,13.4053684 C13.8515176,13.3022807 13.7244201,13.1358596 13.671297,12.9367018 C13.6181738,12.7375789 13.6454514,12.5295789 13.7480654,12.3510175 C13.8506793,12.1724561 14.0163705,12.0447719 14.2146132,11.9913684 C14.2786683,11.9741404 14.3436315,11.9655088 14.4082455,11.9649474 C14.4099918,11.9649825 14.4117032,11.9652281 14.4134845,11.9652281 C14.4155801,11.9652281 14.4176058,11.9649474 14.4197014,11.9649123 C14.5511297,11.9657895 14.6807069,12.0007018 14.7976407,12.0684912 C14.9753815,12.1715789 15.102479,12.338 15.1556021,12.5371579 C15.2086904,12.7362807 15.1814128,12.9443158 15.0787988,13.1228772 Z" id="user" fill="#FFFFFF" fill-rule="nonzero"></path>
                            <ellipse id="Oval" fill="#E83A4B" cx="7.89338235" cy="9.0703125" rx="3.5625" ry="3.5859375"></ellipse>
                        </g>
                    </g>
                </g>
            </g>
        </g>
    </g>
</svg>