
<?xml version="1.0" encoding="UTF-8"?>
<svg width="16px" height="16px" viewBox="0 0 16 16" version="1.1" xmlns="http://www.w3.org/2000/svg" xmlns:xlink="http://www.w3.org/1999/xlink">
    <title>icons/time02</title>
    <g id="Symbols" stroke="none" stroke-width="1" fill="none" fill-rule="evenodd">
        <g id="ui/skillbox/tuile/modèle/desktop" transform="translate(-997.000000, -75.000000)" fill="#1A1919">
            <g id="Group" transform="translate(997.000000, 74.000000)">
                <g transform="translate(0.000000, 1.000000)" id="icons/time02">
                    <path d="M10.9702564,8.68882051 L8.09846154,8.68882051 C7.76205128,8.68882051 7.48307692,8.41312821 7.48307692,8.0734359 L7.48307692,3.65128205 C7.48307692,3.31158974 7.76205128,3.03589744 8.09846154,3.03589744 C8.43897436,3.03589744 8.71384615,3.31158974 8.71384615,3.65128205 L8.71384615,7.45805128 L10.9702564,7.45805128 C11.3107692,7.45805128 11.585641,7.73333333 11.585641,8.0734359 C11.585641,8.41312821 11.3107692,8.68882051 10.9702564,8.68882051 M8.09846154,1.40676923 C4.4225641,1.40676923 1.43179487,4.39712821 1.43179487,8.0734359 C1.43179487,11.7493333 4.4225641,14.7401026 8.09846154,14.7401026 C11.774359,14.7401026 14.7651282,11.7493333 14.7651282,8.0734359 C14.7651282,4.39712821 11.774359,1.40676923 8.09846154,1.40676923 Z M8.09846154,15.9708718 C3.74564103,15.9708718 0.201025641,12.4278974 0.201025641,8.0734359 C0.201025641,3.7185641 3.74564103,0.176 8.09846154,0.176 C12.4553846,0.176 15.9958974,3.7185641 15.9958974,8.0734359 C15.9958974,12.4278974 12.4553846,15.9708718 8.09846154,15.9708718 L8.09846154,15.9708718 Z" id="icons/time"></path>
                </g>
            </g>
        </g>
    </g>
</svg>
