<?xml version="1.0" encoding="UTF-8"?>
<svg width="90px" height="28px" viewBox="0 0 90 28" version="1.1" xmlns="http://www.w3.org/2000/svg" xmlns:xlink="http://www.w3.org/1999/xlink">
    <!-- Generator: Sketch 52.2 (67145) - http://www.bohemiancoding.com/sketch -->
    <title>logo</title>
    <desc>Created with Sketch.</desc>
    <defs>
        <path d="M8.0625,16.140625 L8.0625,21.140625 L13.0820312,21.140625 C13.9414062,21.140625 15.5820312,20.4765625 15.5820312,18.6015625 C15.5820312,17.0390625 14.4296875,16.140625 13.0625,16.140625 L8.0625,16.140625 Z M12.3007812,6.31640625 L8.0625,6.31640625 L8.0625,10.7695312 L12.28125,10.7695312 C13.1796875,10.7695312 14.2539062,9.94921875 14.2539062,8.5625 C14.2539062,7.234375 13.21875,6.31640625 12.3007812,6.31640625 Z M13.84375,27 L0.69921875,27 L0.69921875,0.4375 L12.7304688,0.4375 C18.2773438,0.4375 21.734375,3.07421875 21.734375,7.99609375 C21.734375,10.125 20.2304688,12.2734375 18.6484375,12.8984375 C21.0507812,13.8359375 23.1796875,16.1210938 23.1796875,18.9140625 C23.1796875,24.9492188 18.3359375,27 13.84375,27 Z M36.0898438,11.7851562 C34.5664062,11.7851562 33.2578125,12.5859375 32.4960938,13.9140625 L39.6835938,13.9140625 C38.9023438,12.5859375 37.59375,11.7851562 36.0898438,11.7851562 Z M24.625,16.8242188 C24.625,10.8867188 29.2148438,5.9453125 36.0507812,5.9453125 C42.9453125,5.9453125 47.5742188,10.8671875 47.5742188,16.8242188 C47.5742188,17.7617188 47.4570312,18.2109375 47.359375,18.7382812 L32.0664062,18.7382812 C32.6914062,20.7304688 34.2539062,21.9804688 36.0898438,21.9804688 C37.6132812,21.9804688 38.7070312,21.2382812 39.2148438,20.3203125 L46.96875,20.3203125 C45.8945312,23.9140625 42.0859375,27.6835938 36.0507812,27.6835938 C29.234375,27.6835938 24.6445312,22.7421875 24.625,16.8242188 Z M50.1132812,20.3203125 L50.1132812,14.5390625 L62.7695312,14.5390625 L62.7695312,20.3203125 L50.1132812,20.3203125 Z M82.0664062,16.7851562 L82.0664062,0.4375 L89.4296875,0.4375 L89.4296875,16.765625 C89.4296875,23.0351562 84.8203125,27.6445312 77.4765625,27.6445312 C70.71875,27.6445312 65.5039062,23.5039062 65.5039062,16.765625 L65.5039062,0.4375 L72.8476562,0.4375 L72.8476562,16.8046875 C72.8476562,19.578125 74.4492188,21.5703125 77.4765625,21.5703125 C80.4453125,21.5703125 82.0664062,19.578125 82.0664062,16.7851562 Z" id="path-1"></path>
    </defs>
    <g id="Page-1" stroke="none" stroke-width="1" fill="none" fill-rule="evenodd">
        <g id="logoBeU">
            <g id="logo">
                <use fill="#000000" xlink:href="#path-1"></use>
                <use fill="#1B1624" xlink:href="#path-1"></use>
            </g>
        </g>
    </g>
</svg>